<?xml version="1.0" encoding="UTF-8"?>
<svg width="151px" height="27px" viewBox="0 0 151 27" version="1.1" xmlns="http://www.w3.org/2000/svg" xmlns:xlink="http://www.w3.org/1999/xlink">
    <title>CBT logo</title>
    <g id="R2" stroke="none" stroke-width="1" fill="none" fill-rule="evenodd">
        <g id="Tablet-960-Resources" transform="translate(-197.000000, -485.000000)">
            <g id="Group-9" transform="translate(145.000000, 431.000000)">
                <g id="CBT-logo" transform="translate(52.000000, 54.000000)">
                    <polygon id="Fill-1" fill="#1B2733" points="27.3188226 5.5146913 32.4540403 5.5146913 32.4540403 19.7221696 33.6425565 19.7221696 33.6425565 5.5146913 38.7777742 5.5146913 38.7777742 4.40808261 27.3188226 4.40808261"></polygon>
                    <path d="M24.8556148,16.933187 C24.6490046,17.3154913 24.364053,17.6316652 24.0080664,17.8734913 C23.6431497,18.1223609 23.193397,18.309013 22.6722035,18.4287522 C22.1347734,18.5527957 21.546604,18.6154043 20.9231202,18.6154043 L17.3405234,18.6154043 L17.3405234,12.226187 L21.1577384,12.226187 C21.6074911,12.226187 22.0779454,12.288013 22.5569239,12.4104913 C23.0253487,12.5306217 23.4600825,12.7251 23.8489481,12.9888391 C24.2292895,13.2471 24.5487438,13.5914478 24.797975,14.0128826 C25.0423352,14.4257087 25.1665449,14.9379261 25.1665449,15.5342739 C25.1665449,16.0809261 25.0618191,16.5516652 24.8556148,16.933187 L24.8556148,16.933187 Z M17.3405234,5.51453478 L20.4969105,5.51453478 C21.0388056,5.51453478 21.5624347,5.56423043 22.0548083,5.66244783 C22.5301336,5.75675217 22.9535019,5.9124913 23.3139535,6.12457826 C23.6589804,6.32766522 23.9398728,6.60627391 24.1501363,6.95296957 C24.3575583,7.29731739 24.463096,7.7387087 24.463096,8.26540435 C24.463096,8.76431739 24.3547169,9.19475217 24.1399884,9.54496957 C23.9207949,9.90379565 23.6317841,10.1992304 23.2810745,10.4238391 C22.9194051,10.6554913 22.5013137,10.8304043 22.0385718,10.9442739 C21.5660879,11.0604913 21.0830503,11.1195783 20.6032599,11.1195783 L17.3405234,11.1195783 L17.3405234,5.51453478 Z M24.9148782,12.3768391 C24.5085583,12.0504913 24.0612411,11.7981 23.5842922,11.6263174 C23.5343648,11.6087087 23.4844374,11.5914913 23.4353218,11.5746652 C23.4600825,11.5637087 23.4844374,11.5523609 23.5087922,11.541013 C23.9118648,11.3535783 24.2771874,11.1058826 24.595018,10.8049696 C24.9193433,10.4985783 25.1787223,10.1276217 25.3666605,9.70227391 C25.5558164,9.27575217 25.6512062,8.77136087 25.6512062,8.20357826 C25.6512062,7.46988261 25.4981766,6.8481 25.1965825,6.35466522 C24.8978298,5.8674913 24.4988164,5.47305652 24.0096901,5.18231739 C23.5355825,4.90096957 22.990846,4.69827391 22.3909051,4.5804913 C21.8072008,4.46623043 21.2129427,4.40831739 20.6247734,4.40831739 L16.1528191,4.40831739 L16.1528191,19.722013 L21.136225,19.722013 C21.6846148,19.722013 22.2654777,19.6605783 22.8621712,19.5388826 C23.4759132,19.4144478 24.0458164,19.1937522 24.5564562,18.8838391 C25.0792734,18.5661 25.5136013,18.1270565 25.8468567,17.5784478 C26.1837653,17.0243609 26.3542492,16.3157087 26.3542492,15.4724478 C26.3542492,14.7735783 26.2158325,14.1576652 25.9422465,13.6415348 C25.6723137,13.1344043 25.326475,12.7086652 24.9148782,12.3768391 L24.9148782,12.3768391 Z" id="Fill-2" fill="#1B2733"></path>
                    <path d="M49.9192199,4.13651739 C48.8057978,4.13651739 47.7333731,4.41512609 46.7323892,4.96451739 C45.9859134,5.37460435 45.3867844,5.8836913 44.9431204,6.48434348 C44.9386554,6.3516913 44.9329726,6.20964783 44.926072,6.05860435 C44.9045586,5.5776913 44.8716796,5.13121304 44.8286527,4.73286522 L44.8042978,4.51099565 L42.2003597,4.51099565 L42.2234968,4.77903913 C42.2661177,5.2713 42.2981849,5.83438696 42.3192925,6.45186522 C42.3412118,7.09008261 42.3513597,7.58743043 42.3513597,7.97325652 L42.3513597,19.612213 L45.0555586,19.612213 L45.0555586,11.8741696 C45.0555586,10.9287783 45.1805801,10.0999957 45.4277817,9.4116913 C45.6733597,8.7273 46.0033677,8.15677826 46.408064,7.71577826 C46.8099188,7.2779087 47.2722548,6.94725652 47.7828946,6.73360435 C48.2959699,6.51916957 48.8305586,6.41077826 49.3716419,6.41077826 C50.1225828,6.41077826 50.7509376,6.52816957 51.2388462,6.75982174 C51.721072,6.98873478 52.1103435,7.31234348 52.3952952,7.72086522 C52.6863355,8.13995217 52.8953812,8.65099565 53.0167495,9.23873478 C53.141771,9.84408261 53.2050935,10.5316043 53.2050935,11.2813435 L53.2050935,19.612213 L55.9088866,19.612213 L55.9088866,10.4075609 C55.9088866,8.5469087 55.406771,7.02316957 54.4159349,5.87938696 C53.4133274,4.72308261 51.9008919,4.13651739 49.9192199,4.13651739" id="Fill-4" fill="#1B2733"></path>
                    <path d="M12.8244462,17.0491696 C12.2699677,17.7018652 11.5551532,18.1988217 10.7002984,18.5263435 C9.83083065,18.8593435 8.93984946,19.028387 8.05211559,19.028387 C7.01338172,19.028387 6.06191935,18.8476043 5.22492473,18.4903435 C4.38671237,18.1330826 3.65972043,17.6361261 3.06383871,17.0131696 C2.46673925,16.3894304 2.00034409,15.6463435 1.67723656,14.8050391 C1.35250538,13.9598217 1.18811022,13.0379087 1.18811022,12.0651261 C1.18811022,11.0923435 1.35575269,10.171213 1.68697849,9.32756087 C2.01698656,8.48586522 2.48703495,7.74199565 3.08535215,7.11708261 C3.68042204,6.4949087 4.40741398,5.99795217 5.24643817,5.6399087 C6.08424462,5.28264783 7.02799462,5.10147391 8.05211559,5.10147391 C8.42758602,5.10147391 8.82375806,5.13473478 9.22886022,5.20008261 C9.63112097,5.26543043 10.0354113,5.3706913 10.4295538,5.51312609 C10.8257258,5.65673478 11.2056613,5.83751739 11.5584005,6.05038696 C11.9078925,6.2613 12.2249113,6.51016957 12.5009328,6.79034348 L12.7733011,7.06660435 L13.5457554,6.21082174 L13.3204731,5.9819087 C12.6592392,5.31238696 11.8494409,4.80721304 10.9129973,4.48047391 C9.98954301,4.15843043 9.02712097,3.99525652 8.05211559,3.99525652 C6.88754839,3.99525652 5.79726344,4.19912609 4.8117043,4.60099565 C3.82655108,5.00286522 2.96560753,5.5679087 2.25322849,6.28008261 C1.54003763,6.99225652 0.979876344,7.8546913 0.588169355,8.8439087 C0.198086022,9.82882174 0,10.9123435 0,12.0651261 C0,13.2175174 0.198086022,14.3014304 0.588169355,15.2863435 C0.979876344,16.2747783 1.54003763,17.1376043 2.25322849,17.8501696 C2.96601344,18.5627348 3.82289785,19.127387 4.7999328,19.5288652 C5.7785914,19.9311261 6.87293548,20.1349957 8.05211559,20.1349957 C9.10018548,20.1349957 10.1441962,19.9428652 11.155328,19.5640826 C12.1814785,19.1794304 13.0448575,18.586213 13.7207043,17.8000826 L13.9358387,17.5496478 L13.0688065,16.7615609 L12.8244462,17.0491696 Z" id="Fill-10" fill="#1B2733"></path>
                    <path d="M72.9734696,17.670913 C72.9519562,17.0608696 72.9414024,16.5490435 72.9414024,16.149913 L72.9414024,4.51095652 L70.2376094,4.51095652 L70.2376094,12.249 C70.2376094,13.1947826 70.112182,14.0231739 69.8649804,14.7118696 C69.6198083,15.3946957 69.2902062,15.9652174 68.885104,16.4073913 C68.4820315,16.8464348 68.0188836,17.1766957 67.5094616,17.3899565 C66.997604,17.604 66.4634212,17.7127826 65.9211202,17.7127826 C65.1697734,17.7127826 64.5418245,17.5953913 64.0535099,17.3633478 C63.5704723,17.1344348 63.1816067,16.8108261 62.8974669,16.4023043 C62.6068325,15.9843913 62.3973809,15.4737391 62.2760126,14.8844348 C62.1509911,14.2794783 62.0876685,13.5923478 62.0876685,12.8418261 L62.0876685,4.51095652 L59.3838755,4.51095652 L59.3838755,13.7156087 C59.3838755,15.5774348 59.886397,17.1007826 60.8768272,18.2437826 C61.8782169,19.4004783 63.3914642,19.9866522 65.3735422,19.9866522 C66.4873702,19.9866522 67.559389,19.7084348 68.5603728,19.1586522 C69.3068487,18.7485652 69.9055718,18.2394783 70.3492358,17.6392174 C70.3541067,17.7734348 70.3597895,17.9154783 70.3662841,18.0645652 C70.3877976,18.5470435 70.4206766,18.9931304 70.4641094,19.3906957 L70.4888702,19.6121739 L73.0924024,19.6121739 L73.0692653,19.3441304 C73.0262384,18.8487391 72.9941712,18.2860435 72.9734696,17.670913" id="Fill-14" fill="#1B2733"></path>
                    <path d="M111.907521,10.6904739 C111.970437,10.1931261 112.11616,9.70947391 112.340631,9.2489087 C112.605287,8.70656087 112.966956,8.21586522 113.415491,7.7909087 C113.862402,7.36751739 114.388873,7.02747391 114.979884,6.78016957 C115.567647,6.53482174 116.215892,6.41038696 116.906757,6.41038696 C118.391185,6.41038696 119.545604,6.84003913 120.339166,7.68643043 C121.088889,8.48664783 121.520781,9.49621304 121.625101,10.6904739 L111.907521,10.6904739 Z M122.477927,6.35795217 C121.855255,5.67903913 121.066564,5.13316957 120.134991,4.73482174 C119.20423,4.33803913 118.11841,4.13651739 116.906757,4.13651739 C115.803077,4.13651739 114.761096,4.33764783 113.81004,4.73403913 C112.858983,5.13082174 112.017929,5.69038696 111.311639,6.3966913 C110.604943,7.10260435 110.044781,7.94860435 109.647392,8.91160435 C109.250408,9.87303913 109.04948,10.9326913 109.04948,12.0616043 C109.04948,13.1920826 109.256497,14.2529087 109.66444,15.2139522 C110.072384,16.175387 110.63701,17.0209957 111.3433,17.7265174 C112.052026,18.4347783 112.910128,18.9947348 113.893658,19.3903435 C114.87597,19.7863435 115.955295,19.9866913 117.100378,19.9866913 C118.376572,19.9866913 119.587819,19.7378217 120.701241,19.2467348 C121.818722,18.7536913 122.852991,17.9311696 123.775228,16.8026478 L123.934346,16.6081696 L121.864591,15.0351261 L121.712779,15.2703 C121.305647,15.9010826 120.698806,16.4684739 119.908491,16.9560391 C119.128324,17.4373435 118.183357,17.6815174 117.100378,17.6815174 C116.36608,17.6815174 115.674402,17.5465174 115.045236,17.2808217 C114.41201,17.0135609 113.853472,16.6476913 113.385453,16.1937783 C112.917029,15.7406478 112.545617,15.2006478 112.280962,14.5874739 C112.047561,14.0490391 111.907115,13.4726478 111.86287,12.871213 L124.319558,12.871213 L124.344725,12.6501261 C124.36705,12.448213 124.378416,12.2662565 124.378416,12.0929087 L124.378416,11.6245174 C124.378416,10.604387 124.21605,9.63238696 123.897002,8.73512609 C123.575924,7.83512609 123.098569,7.0349087 122.477927,6.35795217 L122.477927,6.35795217 Z" id="Fill-16" fill="#1B2733"></path>
                    <path d="M145.250391,10.6954826 C144.041985,10.4532652 143.150598,10.1554826 142.60099,9.80996087 C142.094004,9.49183043 141.84802,9.04456957 141.84802,8.44117826 C141.84802,8.0937 141.927579,7.79004783 142.084668,7.53922174 C142.245816,7.28174348 142.462574,7.0673087 142.728853,6.90139565 C143.002033,6.73156957 143.320676,6.60635217 143.675851,6.52965652 C144.043609,6.45061304 144.41502,6.4107 144.779531,6.4107 C145.564568,6.4107 146.272482,6.59265652 146.883789,6.95187391 C147.495095,7.31148261 147.956619,7.77713478 148.25456,8.3363087 L148.394195,8.5977 L150.493582,7.07200435 L150.381144,6.88261304 C149.862791,6.01000435 149.077754,5.32561304 148.047138,4.84743913 C147.028294,4.37552609 145.961146,4.13643913 144.876138,4.13643913 C144.169848,4.13643913 143.475735,4.2233087 142.812472,4.3947 C142.14109,4.56843913 141.533842,4.83804783 141.008184,5.1960913 C140.473189,5.55961304 140.040891,6.02878696 139.723466,6.5903087 C139.4032,7.15496087 139.240834,7.84052609 139.240834,8.62861304 C139.240834,9.35722174 139.393458,9.97704783 139.694646,10.4704826 C139.990558,10.9560913 140.371711,11.364613 140.827552,11.6843087 C141.276899,12.0000913 141.77252,12.2430913 142.301426,12.4066565 C142.811254,12.5643522 143.299974,12.6973957 143.752974,12.8018739 C145.164743,13.128613 146.255028,13.4835261 146.995415,13.8572217 C147.672074,14.1992217 148.000864,14.6942217 148.000864,15.3700043 C148.000864,15.8023957 147.91481,16.1647435 147.745544,16.4476565 C147.573031,16.7356565 147.33963,16.9759174 147.051431,17.1613957 C146.759579,17.350787 146.411305,17.4853957 146.017162,17.5613087 C145.607189,17.6411348 145.169208,17.6814391 144.71499,17.6814391 C143.864601,17.6814391 143.074692,17.4728739 142.367996,17.061613 C141.65724,16.648787 141.113316,16.1322652 140.750834,15.5269174 L140.606329,15.2858739 L138.438748,16.8417 L138.576353,17.0377435 C139.287515,18.0508304 140.212998,18.8048739 141.32642,19.2791348 C142.428477,19.7487 143.579243,19.9870043 144.747463,19.9870043 C145.450912,19.9870043 146.159232,19.9060043 146.852127,19.7459609 C147.556794,19.5835696 148.19895,19.3080913 148.759517,18.9273522 C149.325361,18.5442652 149.789321,18.0441783 150.140437,17.4415696 C150.493582,16.8346565 150.672184,16.0849174 150.672184,15.2138739 C150.672184,13.9977 150.213095,13.0147435 149.307095,12.2920043 C148.429915,11.5931348 147.065232,11.0562652 145.250391,10.6954826 Z" id="Fill-18" fill="#1B2733"></path>
                    <path d="M135.40653,17.0524174 C135.122391,17.1901565 134.819985,17.2993304 134.507025,17.3772 C134.197313,17.4546783 133.899372,17.4942 133.622133,17.4942 C133.322162,17.4942 133.041676,17.4601565 132.787167,17.3936348 C132.549708,17.3318087 132.350404,17.220287 132.177079,17.0520261 C132.004971,16.8853304 131.869396,16.6427217 131.774818,16.3300696 C131.674963,16.0017652 131.624224,15.5736783 131.624224,15.0575478 L131.624224,6.78498261 L135.875361,6.78498261 L135.875361,4.51072174 L131.624224,4.51072174 L131.624224,0.391069565 L128.920431,0.391069565 L128.920431,4.51072174 L125.796517,4.51072174 L125.796517,6.78498261 L128.920431,6.78498261 L128.920431,15.6507652 C128.920431,16.4959826 129.053571,17.193287 129.315791,17.723113 C129.578417,18.255287 129.922633,18.6837652 130.339506,18.9979826 C130.753133,19.3102435 131.208974,19.5250696 131.694041,19.6365913 C132.162872,19.7445913 132.616278,19.7997652 133.042081,19.7997652 C133.54785,19.7997652 134.023987,19.7614174 134.456286,19.686287 C134.89102,19.6107652 135.313576,19.496113 135.712184,19.3454609 L135.884697,19.2805043 L135.758458,16.8818087 L135.40653,17.0524174 Z" id="Fill-20" fill="#1B2733"></path>
                    <path d="M89.460153,3.98997391 C90.4087739,3.90936522 91.1150642,3.10093043 91.0326637,2.18527826 C90.9482336,1.26962609 90.1096153,0.590713043 89.1585589,0.671321739 C88.209532,0.750756522 87.5056772,1.56075652 87.5880777,2.47484348 C87.6725078,3.39049565 88.5111261,4.07058261 89.460153,3.98997391" id="Fill-8" fill="#FFBC00"></path>
                    <path d="M102.688808,3.98997391 C103.637429,3.90936522 104.34372,3.10093043 104.261319,2.18527826 C104.176889,1.26962609 103.337865,0.590713043 102.386808,0.671321739 C101.438187,0.750756522 100.734333,1.56075652 100.816733,2.47484348 C100.901163,3.39049565 101.740187,4.07058261 102.688808,3.98997391" id="Fill-6" fill="#FFBC00"></path>
                    <path d="M97.1407761,3.87453913 C94.5015234,3.87453913 92.3526148,5.94453913 92.3526148,8.48997391 C92.3526148,11.0338435 94.5015234,13.1042348 97.1407761,13.1042348 C99.7820583,13.1042348 101.928531,11.0338435 101.928531,8.48997391 C101.928531,5.94453913 99.7820583,3.87453913 97.1407761,3.87453913 Z" id="Fill-12" fill="#FFBC00"></path>
                    <path d="M83.7040086,16.2214826 C87.2309952,15.9248739 89.8487344,12.9192652 89.5402398,9.52117826 C89.2313392,6.12426522 86.113514,3.60113478 82.588557,3.89852609 C79.0636,4.1963087 76.4462667,7.20074348 76.7547613,10.5976565 C77.0604145,13.9969174 80.1790516,16.5188739 83.7040086,16.2214826" id="Fill-23" fill="#FFBC00"></path>
                    <path d="M100.786898,14.5874739 C97.2599118,14.8825174 94.6421726,17.8885174 94.9506672,21.2866043 C95.2595677,24.6846913 98.377393,27.2078217 101.90235,26.9104304 C105.427307,26.6126478 108.04464,23.6070391 107.736146,20.2113 C107.429681,16.8108652 104.311449,14.2900826 100.786898,14.5874739" id="Fill-25" fill="#FFBC00"></path>
                    <path d="M87.3500903,17.7033913 C84.7088081,17.7033913 82.5623349,19.7745652 82.5623349,22.3176522 C82.5623349,24.863087 84.7088081,26.9346522 87.3500903,26.9346522 C89.9881253,26.9346522 92.1378457,24.863087 92.1378457,22.3176522 C92.1378457,19.7745652 89.9881253,17.7033913 87.3500903,17.7033913" id="Fill-27" fill="#FFBC00"></path>
                </g>
            </g>
        </g>
    </g>
</svg>